<svg width="250" height="250" viewBox="0 0 250 250" fill="none" xmlns="http://www.w3.org/2000/svg">
<path d="M199.723 168.749L142.723 64.2491C119.835 63.416 107.751 63.8842 92.2232 72.2491C77.1284 84.4682 70.059 92.0473 59.7232 106.749C53.6335 118.2 50.0318 123.202 46.2232 135.249C43.7626 144.231 42.746 149.267 46.2232 158.249C50.8957 165.379 53.6638 169.357 63.7232 175.749C72.7232 180.249 77.4914 182.717 90.2232 184.749C99.379 185.432 107.646 187.826 131.223 187.749C180.85 185.766 191.683 171.762 199.723 168.749Z" fill="#FAF5EC" stroke="#FAF5EC"/>
<path d="M56.2878 144.605C55.694 146.46 59.1088 148.485 63.0873 151.298C64.3401 152.184 65.9985 152.002 67.3168 152.44C68.4043 152.802 69.8714 151.66 71.6282 150.44C73.5629 149.096 74.4575 147.115 74.7217 145.456C74.8472 144.668 74.8115 143.97 74.4628 143.527C72.175 142.558 71.9307 142.938 68.256 142.413C65.453 142.235 57.7662 139.985 56.2878 144.605Z" fill="#FFE0E0" stroke="#FFE0E0" stroke-linecap="round"/>
<path d="M70.0374 159.634C71.6051 159.982 73.1965 160.684 74.4821 161.737C74.9838 162.267 75.1798 162.79 75.7706 163.146C76.3615 163.503 77.3413 163.677 78.3507 164.384" stroke="black" stroke-width="2" stroke-linecap="round"/>
<path d="M148.975 62.843C136.078 63.1904 123.348 69.4219 120.739 75.3129C118.13 81.2039 114.636 96.0962 111.238 105.34C107.84 114.584 112.993 127.246 122.208 132.941C131.423 138.637 147.722 132.673 163.017 138.637C172.994 145.976 171.569 148.018 178.814 162.733C186.058 177.448 197.243 177.933 201.631 164.924C206.019 151.914 206.008 151.743 206.019 143.018C206.033 132.269 204.575 126.349 199.437 116.293C193.685 110.251 188.663 108.063 177.936 105.34C163.031 93.2364 157.554 82.8521 148.975 62.843Z" fill="#BD6F22"/>
<path d="M124.331 116.407C128.401 118.079 134.884 118.056 137.495 115.092C140.107 112.129 138.325 100.847 136.179 98.006C134.033 95.1654 127.043 91.9395 120.821 98.006C117.542 105.003 116.682 111.472 124.331 116.407Z" fill="black"/>
<path d="M132.304 107.94C132.304 109.15 131.322 110.13 130.11 110.13C128.898 110.13 127.916 109.15 127.916 107.94C127.916 106.73 128.898 105.749 130.11 105.749C131.322 105.749 132.304 106.73 132.304 107.94Z" fill="#D9D9D9"/>
<path d="M129.671 101.806C129.671 103.5 127.903 104.873 125.722 104.873C123.541 104.873 121.773 103.5 121.773 101.806C121.773 100.112 123.541 98.7394 125.722 98.7394C127.903 98.7394 129.671 100.112 129.671 101.806Z" fill="#D9D9D9"/>
<path d="M141.294 66.0279C141.294 58.9187 168.124 63.2055 172.941 67.7582C177.758 72.3108 189.397 90.1846 198.891 100.123C208.385 110.061 202.056 118.901 175.473 112.119C148.89 105.338 141.294 73.1372 141.294 66.0279Z" fill="#614F3D"/>
<path d="M91.2517 73.5593C78.4204 83.7051 68.361 93.857 59.4969 107.379C51.5274 104.334 51.1766 101.004 53.4073 95.8402C64.6576 81.0906 104.083 63.4135 91.2517 73.5593Z" fill="#5E4A36" stroke="#614F3D" stroke-linejoin="bevel"/>
<path d="M62.4919 147.767C62.1169 147.656 61.7443 147.281 61.2365 146.98C60.6916 146.643 60.2424 146.268 59.7729 145.874C59.6412 145.779 59.4925 145.705 59.3394 145.628" stroke="black" stroke-width="2" stroke-linecap="round"/>
<path d="M69.6973 148.668C69.8459 148.37 70.6678 147.621 71.3653 147.019C71.4976 146.905 71.6091 146.831 71.6851 146.737C71.761 146.643 71.7982 146.531 71.8365 146.416" stroke="black" stroke-width="2" stroke-linecap="round"/>
<path d="M66.4746 153.696C66.6648 153.845 66.8347 154.189 66.962 154.533C67.156 155.059 67.2788 156.08 67.8298 157.038C68.1588 157.61 68.5296 157.975 68.7221 158.31C68.8706 158.568 69.1251 158.793 69.2943 159.062C69.442 159.223 69.6125 159.354 69.7817 159.45C69.8669 159.504 69.9509 159.568 70.0375 159.634" stroke="black" stroke-width="2" stroke-linecap="round"/>
<path d="M69.0315 159.405C68.8128 159.55 68.3761 160.083 67.7782 160.694C67.1423 161.344 66.8869 161.671 66.6675 162.06C66.3847 162.563 66.034 163.009 65.7776 163.463C65.4759 163.996 65.2777 164.304 65.1431 164.645C65.1065 164.767 65.0582 164.936 65.0213 165.059C64.9844 165.182 64.9602 165.255 64.9354 165.329" stroke="black" stroke-width="2" stroke-linecap="round"/>
<path d="M135.802 158.322C136.09 158.61 140.271 161.351 147.246 165.999C152.101 169.235 157.442 173.716 163.764 178.223C166.342 179.992 167.638 180.713 168.666 181.372C169.694 182.031 170.414 182.607 171.592 183.637" stroke="black" stroke-width="2" stroke-linecap="round"/>
<path d="M141.802 155.322C142.09 155.322 142.814 155.61 149.881 156.262C156.371 156.627 168.758 157.059 175.5 157.354C182.241 157.648 182.961 157.792 184.576 158.377" stroke="black" stroke-width="2" stroke-linecap="round"/>
<path d="M135.802 152.106C135.802 151.674 135.802 151.242 144.516 149.291C153.23 147.34 170.658 143.883 179.853 142.103C189.047 140.322 189.479 140.322 189.924 140.322" stroke="black" stroke-width="2" stroke-linecap="round"/>
<path d="M36.7517 142.895C35.3027 142.022 32.1164 141.158 19.7054 134.41C16.9753 133.005 15.9671 132.717 15.2316 132.424C14.4961 132.132 14.064 131.844 13.1824 131.111" stroke="black" stroke-width="2" stroke-linecap="round"/>
<path d="M35.4423 146.823C33.7139 147.112 28.7905 147.836 21.3116 149.213C17.8657 150.014 15.129 151.022 13.5032 151.614C11.8773 152.205 11.4452 152.349 11 152.498" stroke="black" stroke-width="2" stroke-linecap="round"/>
<path d="M35.4423 125C36.3109 125.576 37.4763 128.186 37.7687 130.591C37.9127 131.39 38.2008 132.542 38.3492 133.568C38.4976 134.594 38.4976 135.458 39.3705 137.221" stroke="black" stroke-width="2" stroke-linecap="round"/>
</svg>
